<svg xmlns="http://www.w3.org/2000/svg" xmlns:xlink="http://www.w3.org/1999/xlink" width="591" height="180" viewBox="0 0 591 180" fill="none"><path d="M152.613 81.3983L83.041 11.8267C78.7214 7.50709 72.0542 7.17239 68.1494 11.0772L53.2296 25.997C49.3249 29.9018 49.6525 36.576 53.9721 40.8956L66.2027 53.1262C66.1549 53.0762 66.1063 53.0266 66.0571 52.9774L124.295 111.215C128.199 115.12 128.199 121.451 124.295 125.355L120.362 129.289C120.397 129.254 120.433 129.219 120.468 129.184L153.362 96.2898C157.267 92.385 156.932 85.7181 152.613 81.3983Z" fill-rule="evenodd"  fill="#FFFFFF" ></path><g opacity="0.75"><path     fill="#FFFFFF"  d="M124.295 111.215L65.7808 52.701L66.0566 52.9768C69.6533 56.5735 69.6534 62.405 66.0566 66.0017L66.0566 66.0017L51.1784 80.8799C47.2736 84.7847 47.2736 91.1157 51.1784 95.0206L80.8776 124.72L95.6915 139.534C99.6749 143.517 99.6749 149.975 95.6915 153.959L95.6915 153.959L124.295 125.355C128.2 121.451 128.199 115.12 124.295 111.215Z"></path></g><g opacity="0.55"><path     fill="#FFFFFF"  d="M95.8897 139.62L66.4027 110.133L66.4027 110.133C69.8119 113.542 69.812 119.07 66.4027 122.479L66.2471 122.635L51.8993 136.983C47.9944 140.887 47.9944 147.218 51.8993 151.123L68.1429 167.367C72.0478 171.272 78.3788 171.272 82.2836 167.367L95.8898 153.761C99.7946 149.856 99.7946 143.525 95.8897 139.62Z"></path></g><path     fill="#FFFFFF"  d="M187 132.8L204.344 132.8L204.344 97.6435L235.164 97.6435L235.164 83.1123L204.344 83.1123L204.344 60.4951L240.437 60.4951L240.437 45.9639L187 45.9639L187 132.8Z"></path><path     fill="#FFFFFF"  d="M251.648 132.8L306.141 132.8L306.141 118.269L268.992 118.269L268.992 95.0654L299.344 95.0654L299.344 80.5342L268.992 80.5342L268.992 60.4951L304.852 60.4951L304.852 45.9639L251.648 45.9639L251.648 132.8Z"></path><path     fill="#FFFFFF"  d="M345.711 134.44C365.75 134.44 377.586 122.37 377.586 108.19C377.586 95.6514 370.672 88.8545 360.125 84.5185L348.758 79.9482C341.375 76.9014 335.281 74.6748 335.281 68.4639C335.281 62.7217 339.969 59.3232 347.586 59.3232C354.852 59.3232 360.594 62.0185 366.102 66.4717L374.891 55.6904C367.859 48.542 357.781 44.4404 347.586 44.4404C330.125 44.4404 317.586 55.4561 317.586 69.5185C317.586 82.1748 326.492 89.206 335.281 92.7217L346.766 97.7607C354.5 101.042 359.891 103.034 359.891 109.479C359.891 115.573 355.086 119.44 346.062 119.44C338.445 119.44 330.125 115.573 324.031 109.831L314.07 121.784C322.508 129.987 334.109 134.44 345.711 134.44Z"></path><path     fill="#FFFFFF"  d="M423.484 134.44C446.453 134.44 462.273 117.214 462.273 88.9717C462.273 60.8467 446.453 44.4404 423.484 44.4404C400.516 44.4404 384.695 60.8467 384.695 88.9717C384.695 117.214 400.516 134.44 423.484 134.44ZM423.484 119.44C410.594 119.44 402.508 107.487 402.508 88.9717C402.508 70.456 410.594 59.3232 423.484 59.3232C436.375 59.3232 444.578 70.456 444.578 88.9717C444.578 107.487 436.375 119.44 423.484 119.44Z"></path><path     fill="#FFFFFF"  d="M475.359 132.8L500.086 132.8C525.75 132.8 542.039 118.269 542.039 88.9717C542.039 59.792 525.75 45.9639 499.148 45.9639L475.359 45.9639L475.359 132.8ZM492.703 118.737L492.703 59.9092L497.976 59.9092C514.266 59.9092 524.344 67.8779 524.344 88.9717C524.344 110.065 514.266 118.737 497.976 118.737L492.703 118.737Z"></path></svg>