<svg xmlns="http://www.w3.org/2000/svg" xmlns:xlink="http://www.w3.org/1999/xlink" width="222" height="220" viewBox="0 0 222 220" fill="none"><path     fill="#14824B"  d="M113.324 163.939L81.7664 132.382L81.7664 132.382C85.415 136.03 85.4151 141.946 81.7665 145.595L81.6 145.761L66.2449 161.116C62.066 165.295 62.066 172.071 66.245 176.25L83.6291 193.634C87.8081 197.813 94.5836 197.813 98.7625 193.634L113.324 179.073C117.503 174.894 117.503 168.118 113.324 163.939Z"></path><path   fill-rule="evenodd"  fill="#69CD37"  d="M99.5714 27.1736L174.028 101.63C178.651 106.253 179.009 113.389 174.83 117.567L139.627 152.771C135.448 156.95 128.313 156.592 123.69 151.969L93.2908 121.57C88.6677 116.947 88.3099 109.812 92.4886 105.633L97.7781 100.344C101.297 96.8246 101.297 91.1189 97.7781 87.5998L68.4617 58.2834C63.8388 53.6605 63.4881 46.5177 67.667 42.3387L83.6343 26.3714C87.8133 22.1925 94.9485 22.5507 99.5714 27.1736Z"></path><path     fill="#00B95F"  d="M143.722 133.54L81.1005 70.9178L81.3956 71.2129C85.2449 75.0622 85.2449 81.303 81.3957 85.1522L81.3957 85.1522L65.473 101.075C61.2941 105.254 61.2941 112.029 65.4731 116.208L97.2574 147.993L113.111 163.847C117.374 168.11 117.374 175.021 113.111 179.284L113.111 179.284L143.722 148.673C147.901 144.494 147.901 137.719 143.722 133.54Z"></path></svg>